<?xml version="1.0" encoding="UTF-8"?>
<svg xmlns="http://www.w3.org/2000/svg" xmlns:xlink="http://www.w3.org/1999/xlink" width="70px" height="70px" viewBox="0 0 70 70" version="1.1">
<g id="surface1">
<path style=" stroke:none;fill-rule:nonzero;fill:rgb(99.607843%,99.607843%,99.607843%);fill-opacity:1;" d="M 0 0 C 23.101562 0 46.199219 0 70 0 C 70 23.101562 70 46.199219 70 70 C 46.898438 70 23.800781 70 0 70 C 0 46.898438 0 23.800781 0 0 Z M 0 0 "/>
<path style=" stroke:none;fill-rule:nonzero;fill:rgb(2.352941%,2.352941%,2.352941%);fill-opacity:1;" d="M 44.941406 21.839844 C 45.394531 22.175781 45.710938 22.429688 45.921875 22.960938 C 45.734375 23.148438 45.546875 23.339844 45.359375 23.527344 C 45.203125 23.6875 45.203125 23.6875 45.046875 23.847656 C 44.652344 24.226562 44.246094 24.585938 43.832031 24.941406 C 43.363281 25.355469 42.910156 25.785156 42.453125 26.214844 C 41.660156 26.964844 40.855469 27.707031 40.046875 28.445312 C 39.550781 28.902344 39.0625 29.359375 38.570312 29.820312 C 37.804688 30.535156 37.035156 31.246094 36.261719 31.957031 C 35.785156 32.390625 35.3125 32.824219 34.84375 33.257812 C 34.765625 33.332031 34.6875 33.402344 34.605469 33.476562 C 33.941406 34.035156 33.941406 34.035156 33.652344 34.816406 C 33.660156 35.203125 33.691406 35.367188 33.953125 35.652344 C 34.046875 35.726562 34.140625 35.800781 34.234375 35.878906 C 34.957031 36.476562 35.605469 37.136719 36.261719 37.804688 C 36.714844 38.265625 37.171875 38.707031 37.660156 39.128906 C 38.351562 39.726562 38.980469 40.375 39.621094 41.027344 C 40.074219 41.484375 40.53125 41.929688 41.019531 42.351562 C 41.710938 42.945312 42.34375 43.59375 42.980469 44.246094 C 43.53125 44.804688 44.097656 45.332031 44.695312 45.847656 C 44.976562 46.089844 45.238281 46.347656 45.5 46.609375 C 45.582031 46.695312 45.660156 46.777344 45.746094 46.859375 C 45.832031 46.949219 45.832031 46.949219 45.921875 47.039062 C 45.570312 47.765625 45.570312 47.765625 45.21875 48.019531 C 44.597656 47.992188 44.253906 47.515625 43.855469 47.09375 C 43.703125 46.9375 43.550781 46.78125 43.402344 46.625 C 43.328125 46.550781 43.253906 46.476562 43.179688 46.398438 C 42.945312 46.164062 42.699219 45.949219 42.445312 45.734375 C 41.867188 45.246094 41.34375 44.707031 40.808594 44.171875 C 40.027344 43.375 40.027344 43.375 39.199219 42.628906 C 38.527344 42.066406 37.925781 41.429688 37.308594 40.808594 C 36.789062 40.285156 36.261719 39.78125 35.695312 39.304688 C 35.242188 38.902344 34.820312 38.464844 34.394531 38.03125 C 34.035156 37.65625 34.035156 37.65625 33.601562 37.378906 C 33.601562 40.753906 33.601562 44.125 33.601562 47.601562 C 33.136719 47.601562 32.675781 47.601562 32.199219 47.601562 C 32.199219 43.71875 32.199219 39.839844 32.199219 35.839844 C 31.230469 36.574219 31.230469 36.574219 30.371094 37.378906 C 30.03125 37.738281 29.671875 38.070312 29.300781 38.394531 C 28.691406 38.925781 28.105469 39.476562 27.519531 40.03125 C 26.710938 40.796875 25.898438 41.546875 25.058594 42.28125 C 24.738281 42.003906 24.414062 41.726562 24.078125 41.441406 C 24.316406 40.96875 24.425781 40.785156 24.789062 40.449219 C 24.871094 40.371094 24.957031 40.292969 25.046875 40.210938 C 25.136719 40.128906 25.226562 40.046875 25.324219 39.960938 C 25.417969 39.875 25.511719 39.789062 25.609375 39.699219 C 25.890625 39.4375 26.175781 39.179688 26.460938 38.921875 C 26.605469 38.785156 26.753906 38.652344 26.898438 38.519531 C 27.167969 38.273438 27.433594 38.027344 27.703125 37.78125 C 28.222656 37.304688 28.738281 36.828125 29.25 36.347656 C 29.339844 36.265625 29.425781 36.183594 29.515625 36.101562 C 30 35.648438 30.476562 35.191406 30.941406 34.71875 C 30.875 34.660156 30.8125 34.601562 30.75 34.542969 C 29.628906 33.492188 28.511719 32.445312 27.433594 31.351562 C 26.996094 30.910156 26.539062 30.496094 26.0625 30.089844 C 25.371094 29.472656 24.730469 28.800781 24.078125 28.140625 C 24.558594 27.335938 24.558594 27.335938 24.910156 27.179688 C 25.199219 27.160156 25.199219 27.160156 25.425781 27.308594 C 25.496094 27.386719 25.570312 27.460938 25.644531 27.539062 C 25.726562 27.625 25.804688 27.707031 25.890625 27.792969 C 25.972656 27.886719 26.058594 27.976562 26.144531 28.070312 C 26.320312 28.253906 26.5 28.4375 26.675781 28.621094 C 26.761719 28.710938 26.847656 28.796875 26.933594 28.886719 C 27.179688 29.140625 27.4375 29.375 27.710938 29.601562 C 28.285156 30.085938 28.804688 30.617188 29.328125 31.148438 C 30.246094 32.074219 31.183594 32.925781 32.199219 33.738281 C 32.199219 29.996094 32.199219 26.253906 32.199219 22.398438 C 32.660156 22.398438 33.125 22.398438 33.601562 22.398438 C 33.644531 25.632812 33.691406 28.867188 33.738281 32.199219 C 34.480469 31.507812 35.21875 30.8125 35.980469 30.101562 C 36.828125 29.320312 36.828125 29.320312 37.230469 28.953125 C 37.726562 28.5 38.214844 28.046875 38.703125 27.589844 C 39.582031 26.765625 40.46875 25.945312 41.355469 25.125 C 41.585938 24.914062 41.816406 24.703125 42.042969 24.492188 C 43.003906 23.601562 43.96875 22.71875 44.941406 21.839844 Z M 44.941406 21.839844 "/>
</g>
</svg>
